<svg xmlns="http://www.w3.org/2000/svg" width="90" height="90" viewBox="0 0 90 90" fill="none">
<path fill-rule="evenodd" clip-rule="evenodd" d="M65.0736 72.3344H27.0957V45.8005H47.8126C48.8148 45.8005 49.6296 44.9911 49.6296 43.9956V23.5245H65.0736V34.7881H68.7075V21.7196C68.7075 20.7241 67.8927 19.9147 66.8906 19.9147H49.6265V17.8648C49.6265 16.8693 48.8116 16.0599 47.8095 16.0599H37.8819L40.3138 16.0165C40.242 12.0997 37.2075 8.7814 33.4082 8.46198C31.4102 8.29451 29.3747 8.99228 27.8169 10.3723C26.206 11.8051 25.2507 13.855 25.1945 16.001V16.0568H17.6988C16.6967 16.0568 15.8818 16.8662 15.8818 17.8617V43.9956C15.8818 44.9911 16.6935 45.8005 17.6988 45.8005H23.4587V74.1393C23.4587 75.1348 24.2735 75.9442 25.2756 75.9442H66.8906C67.8927 75.9442 68.7075 75.1348 68.7075 74.1393V68.5448H65.0736V72.3344ZM19.5189 19.6666H25.1976V33.0421C25.1976 33.2065 25.2194 33.374 25.2663 33.5321C26.1435 36.6209 28.8065 38.922 31.8941 39.257C32.1688 39.288 32.4435 39.3004 32.7182 39.3004C36.1336 39.3004 39.2212 36.99 40.2451 33.5538C40.2951 33.3864 40.3201 33.2127 40.3201 33.0421V25.3077C40.3201 25.2519 40.317 25.193 40.3107 25.1372C40.0672 22.5973 37.8631 20.6094 35.2969 20.6094C32.7307 20.6094 30.5267 22.5973 30.2832 25.1372C30.2769 25.1961 30.2738 25.2519 30.2738 25.3077V29.0695H33.9077V25.4101C34.0076 24.7371 34.6039 24.2161 35.2969 24.2161C35.99 24.2161 36.5863 24.734 36.6862 25.4101V32.7568C36.015 34.6331 34.1668 35.8704 32.2905 35.6689C30.7327 35.5014 29.3684 34.3446 28.8315 32.7723V16.0723C28.8689 14.9094 29.3684 13.8395 30.2457 13.0611C31.0574 12.3385 32.1001 11.9725 33.1054 12.0594C35.069 12.2237 36.6331 13.979 36.6862 16.0599H32.7339V19.6697H45.9988V42.1938H19.5189V19.6666Z" fill="#17E3CB"/>
<path d="M46.6419 55.5442H31.0949V59.154H46.6419V55.5442Z" fill="#17E3CB"/>
<path d="M31.0917 63.1267H49.8106V66.7365H31.0917V63.1267Z" fill="#17E3CB"/>
<path fill-rule="evenodd" clip-rule="evenodd" d="M65.9182 62.4408V64.8H67.8919V62.4865C69.1598 62.4104 70.24 62.1324 71.1324 61.6524C72.1929 61.0616 72.9982 60.2976 73.5481 59.3604C74.098 58.4029 74.3729 57.374 74.3729 56.2739C74.3729 55.0108 74.1274 53.9819 73.6364 53.1874C73.1455 52.3928 72.4777 51.7511 71.6332 51.2621C70.8084 50.7528 69.8853 50.325 68.8641 49.9786C68.5281 49.8594 68.204 49.7443 67.8919 49.6333V43.6341C68.1155 43.7075 68.3217 43.8054 68.5106 43.9279C69.0016 44.2131 69.3747 44.59 69.63 45.0586C69.8853 45.5068 70.0228 45.9957 70.0424 46.5254H73.8132C73.7935 45.2623 73.4793 44.1825 72.8705 43.2861C72.2813 42.3693 71.4663 41.6563 70.4254 41.1469C69.6761 40.7732 68.8316 40.5366 67.8919 40.4371V37.9687H65.9182V40.4237C64.9316 40.5141 64.038 40.7552 63.2374 41.1469C62.2162 41.6359 61.4208 42.3286 60.8512 43.225C60.2817 44.1214 59.9969 45.191 59.9969 46.4337C59.9969 47.921 60.4093 49.1128 61.2342 50.0092C62.0591 50.8852 63.2865 51.6085 64.9166 52.1789C65.2583 52.2971 65.5921 52.4132 65.9182 52.5273V59.2779C65.5989 59.197 65.3043 59.0819 65.0344 58.9326C64.4649 58.6066 64.0132 58.1686 63.6793 57.6185C63.3651 57.0481 63.208 56.4063 63.208 55.6933H59.4667C59.4863 57.099 59.8202 58.3112 60.4683 59.3298C61.1164 60.3485 62.0198 61.1329 63.1785 61.6829C64.0065 62.076 64.9197 62.3286 65.9182 62.4408ZM67.8919 59.3765C68.2948 59.3245 68.6581 59.2275 68.9819 59.0854C69.5122 58.8409 69.9148 58.5047 70.1897 58.0769C70.4843 57.6287 70.6316 57.1092 70.6316 56.5184C70.6316 55.8461 70.4745 55.296 70.1603 54.8682C69.8657 54.42 69.4533 54.0431 68.923 53.7375C68.6072 53.5555 68.2635 53.3879 67.8919 53.2348V59.3765ZM65.9182 48.9014V43.5334C65.6585 43.5845 65.413 43.6651 65.1817 43.7751C64.73 43.9788 64.3667 44.2844 64.0917 44.6918C63.8364 45.0789 63.7088 45.5679 63.7088 46.1587C63.7088 46.7291 63.8266 47.2079 64.0623 47.595C64.3176 47.9617 64.6809 48.2775 65.1523 48.5423C65.3879 48.6646 65.6432 48.7843 65.9182 48.9014Z" fill="#17E3CB"/>
</svg>
