<svg viewBox="0 0 500 100" xmlns="http://www.w3.org/2000/svg" width="150" height="100" fill="#fff"><path d="M487.944 0.00613919C478.681 -0.0320057 474.443 8.65829 474.226 8.96121V0.255203H470.056V3.00612C467.522 0.910398 464.963 -0.0701493 462.257 0.00389661C456.061 0.185646 450.883 5.23423 450.444 11.5999C449.945 18.8968 455.57 24.9978 462.55 24.9978C464.281 24.9978 466.811 24.6163 470.054 21.7554V24.4637H474.228V19.3568C474.228 19.3568 470.61 14.49 470.61 14.4945C470.61 14.4945 467.524 20.6986 462.55 20.6986C458.161 20.6986 454.59 17.021 454.59 12.5019C454.59 7.9829 458.161 4.30529 462.55 4.30529C466.249 4.30529 469.231 7.69794 472.226 11.7391C476.631 17.6739 481.061 25 487.866 25C492.036 25 496.236 22.8415 498.48 19.2132C498.48 19.2132 499.083 18.3471 499.364 17.6223H494.462C492.963 19.5565 490.339 20.6919 487.9 20.7031H487.868C484.106 20.7031 480.94 16.5318 477.621 11.9679C478.472 10.2581 479.599 8.36884 481.102 6.93504C482.953 5.1714 485.168 4.31427 487.87 4.31427C491.536 4.31427 494.631 6.88119 495.55 10.3613H481.73V14.6605H500V12.5558C500.004 5.67626 494.622 0.0397974 487.946 0.0106278L487.944 0.00613919Z" fill="#fff"></path><path d="M233.529 30.9483C220.543 30.9483 210.331 41.2004 210.331 54.1665C210.331 67.1324 220.543 77.3847 233.529 77.3847C246.518 77.3847 256.73 67.1324 256.73 54.1665C256.73 41.2004 246.518 30.9483 233.529 30.9483ZM233.529 69.183C225.501 69.183 219.185 62.6697 219.185 54.1665C219.185 45.6029 225.324 39.15 233.529 39.15C241.559 39.15 247.874 45.6633 247.874 54.1665C247.874 62.7301 241.736 69.183 233.529 69.183Z" fill="#fff"></path><path d="M194.628 60.4987H203.719C201.713 69.6654 193.979 77.3847 182.41 77.3847C169.008 77.3847 159.622 67.0722 159.622 54.2267C159.622 41.3211 169.185 30.9483 182.822 30.9483C195.16 30.9483 201.949 39.2707 203.484 47.7739H194.51C193.152 42.8891 189.08 39.15 182.527 39.15C174.263 39.15 168.419 45.5426 168.419 54.1665C168.419 62.8508 174.322 69.183 182.645 69.183C188.844 69.183 193.034 65.7455 194.628 60.4987Z" fill="#fff"></path><path d="M386.304 32.0338V37.7629C383.116 33.5415 378.276 30.9483 372.018 30.9483C359.621 30.9483 350.117 40.9593 350.117 54.1665C350.117 67.3737 359.621 77.3847 372.077 77.3847C378.335 77.3847 383.116 74.7915 386.363 70.5699V76.2991H395.04V32.0338H386.304ZM372.431 69.4241C364.697 69.4241 358.913 62.8508 358.913 54.1665C358.913 45.4822 364.697 38.9088 372.431 38.9088C380.223 38.9088 386.068 45.4822 386.068 54.1665C386.127 62.8508 380.223 69.4241 372.431 69.4241Z" fill="#fff"></path><path d="M446.28 49.9452V76.782H437.424V51.8752C437.424 44.3367 433.647 39.874 427.448 39.874C419.892 39.874 414.52 45.3017 414.52 55.9759V76.8422H405.666V32.6373H414.343V38.7884C417.826 33.8433 422.49 31.5517 428.747 31.5517C439.55 31.4914 446.28 39.3312 446.28 49.9452Z" fill="#fff"></path><path d="M343.683 63.2729C343.683 72.2586 336.244 77.3847 325.5 77.3847C314.816 77.3847 308.203 71.957 306.847 63.2729H315.583C316.941 67.615 319.952 69.8464 325.618 69.8464C331.639 69.8464 334.827 67.615 334.827 64.0569C334.827 61.343 333.174 59.7148 329.102 58.8705L319.775 56.9406C312.159 55.3123 307.79 50.9703 307.79 44.5777C307.79 36.8584 315.052 31.0086 325.677 31.0086C337.189 31.0086 342.561 37.4614 343.388 44.7586H334.768C333.825 41.1402 331.05 38.4868 325.5 38.4868C319.598 38.4868 316.882 40.9593 316.882 43.9746C316.882 46.4472 318.358 48.1358 322.43 48.9801L332.526 51.2114C339.609 52.7192 343.683 56.9406 343.683 63.2729Z" fill="#fff"></path><path d="M290.733 59.715L290.851 59.6547C296.991 57.7248 300.768 52.9606 300.768 46.6886C300.768 38.9091 294.864 32.0341 284.535 32.0341H264.936V76.2392H273.672V61.3433H281.996L291.677 76.2392H301.772L290.733 59.715ZM284.888 53.5034H273.731V39.9947H284.888C290.024 39.9947 292.327 43.1307 292.327 46.749C292.386 50.5483 289.67 53.5034 284.888 53.5034Z" fill="#fff"></path><path d="M23.1984 32.0341H126.74C126.74 37.3411 122.49 41.6831 117.295 41.6831H32.6435V66.59H117.295C122.49 66.59 126.74 70.9322 126.74 76.2392H23.1984V32.0341Z" fill="#fff"></path><path d="M127.509 90.3509V100H23.6127C10.5667 100 0 89.2051 0 75.8773V32.4561C0 19.1283 10.5667 8.33333 23.6127 8.33333H127.509V17.9825H23.6127C15.8206 17.9825 9.44511 24.4353 9.44511 32.4561V75.8773C9.44511 83.8981 15.8206 90.3509 23.6127 90.3509H127.509Z" fill="#fff"></path></svg>
